<svg width="167" height="124" viewBox="0 0 167 124" fill="none" xmlns="http://www.w3.org/2000/svg">
    <path d="M125.7 66.9C129.9 63.8 136.7 66.1 136.7 73.5C138.7 69.4 147.4 70.4 147 77.3C149.7 75.5 153.5 77.1 153.3 81C157 79 163.7 83.1 162.2 89.1C160.2 88.5 157.9 88.8 155.9 90.4C154.7 85.9 149.9 84.4 145.7 84.7C142.4 84.9 139.7 87.4 138.6 90C136.8 88.8 134.4 88.6 131.7 89.2C127.1 90.2 124.5 93.1 123.9 97C121.9 93.2 116.2 94.8 115.6 98.3C114.1 93.1 109 91.6 105.5 92C102.5 92.3 98.6 94 97.5 98.4C95 96 91 94.2 86.6 94.6C83.3 94.9 80.2 96.6 78.4 99.1C77.9 94.7 69.4 93 66.2 97.2C64.7 95.4 62.1 94 59.2 93.8C56.4 93.6 52.6 94.3 50.4 96.9C49.8 92.8 44.1 90.3 40.2 91.8C39 87.1 29.7 83.7 25.3 91.4C24.8 86.7 21.1 84.9 17.8 84.9C12.8 84.9 10.1 88.7 10 91.1C8.8 90.4 7.50001 90.3 6.20001 90.5C4.60001 84.6 11.6 80.1 15.5 82.7C14.5 76.7 21.8 74.2 25.2 78.2C23.8 72.8 29.4 69 33.8 70.6C35.3 65 44.6 61.8 49.3 68C50 64 53.9 61.4 58.7 62C60.9 62.3 62.7 63.4 63.8 64.8C65.5 60.3 72.5 59.3 74.8 63.3C76.3 55.2 90 51.5 95.6 60.1C97.4 59.2 99.7 58.9 102.4 59.6C106.6 60.7 108.8 64.2 109.1 66.9C111.5 59.6 123.4 60.9 125.7 66.9Z" fill="#D98448"/>
    <path d="M25.3001 91.3C29.6001 83.6 38.9001 87 40.2001 91.7C44.1001 90.2 49.8001 92.7 50.4001 96.8C52.6001 94.2 56.4001 93.5 59.2001 93.7C62.0001 93.9 64.6001 95.2999 66.2001 97.0999C69.4001 92.9999 77.9001 94.6 78.4001 99C80.3001 96.5 83.3001 94.8 86.6001 94.5C91.0001 94.1 95.0001 95.9 97.5001 98.3C98.6001 93.9 102.5 92.2 105.5 91.9C109 91.5 114.1 93 115.6 98.2C116.3 94.7 121.9 93 123.9 96.9C124.5 92.9 127.1 90.0999 131.7 89.0999C134.4 88.4999 136.8 88.7 138.6 89.9C139.6 87.4 142.2 85.1 145.2 84.7C142.7 82.3 137.9 82.6 136.5 85.5C136.5 78.1 129.7 75.9 125.5 78.9C123.2 72.9 111.3 71.6 108.8 78.9C108.5 76.2 106.3 72.6999 102.1 71.5999C99.5001 70.8999 97.2001 71.1999 95.3001 72.0999C89.8001 63.5999 76.0001 67.3 74.5001 75.3C72.2001 71.3 65.2001 72.2 63.5001 76.8C62.4001 75.4 60.6001 74.3 58.4001 74C53.6001 73.3 49.7001 76 49.0001 80C44.3001 73.8 35.0001 77.0999 33.5001 82.5999C29.2001 80.9999 23.5001 84.8 24.9001 90.2L24.8001 90.0999C25.1001 90.3999 25.2001 90.8 25.3001 91.3Z" fill="#B85E37"/>
    <path d="M88.2 107.6C119.238 107.6 144.4 100.795 144.4 92.4C144.4 84.0053 119.238 77.2 88.2 77.2C57.1616 77.2 32 84.0053 32 92.4C32 100.795 57.1616 107.6 88.2 107.6Z" fill="#663629"/>
    <path d="M162.2 89C164.8 89.8 166.8 92.4 166.6 95.9C166.2 101.6 162.5 103.3 158.7 102.7C158.7 103.7 158.5 104.8 158 105.9C156.2 109.7 150 111.2 144 108.6C142.5 116.6 132 117 127.9 114.4C125.8 119.1 119 120.4 115.4 117.4C113.8 122 105.4 123 102.5 118.3C99.8 122.3 95.1 124.3 87.5 123.5C83.3 123.1 80.7 121.7 79.2 120C72.7 126.2 61.7 122.2 60 116.8C58.3 119.2 54.3 120.7 49.4 119.8C46.7 119.3 43.9 117.5 42.7 114.8C38.7 119.6 29 117.1 28.3 111.3C23.6 113 15 112.5 12.3 108.4C11.3 107 10.8 105.6 10.6 104.2C4.60002 104.7 0.700011 102 0.500011 97.5C0.300011 93.9 3.2 90.7999 6.3 90.2999C7.6 90.0999 8.90002 90.2 10.1 90.9C10.3 88.6 12.9 84.7 17.9 84.7C21.2 84.7 24.9 86.5 25.4 91.2C29.7 83.5 39 86.8999 40.3 91.5999C44.2 90.0999 49.9 92.6 50.5 96.7C52.7 94.1 56.5 93.3999 59.3 93.5999C62.1 93.7999 64.7 95.2 66.3 97C69.5 92.9 78 94.5 78.5 98.9C80.4 96.4 83.4 94.7 86.7 94.4C91.1 94 95.1 95.8 97.6 98.2C98.7 93.8 102.6 92.0999 105.6 91.7999C109.1 91.3999 114.2 92.8999 115.7 98.0999C116.4 94.5999 122 92.8999 124 96.7999C124.6 92.7999 127.2 90 131.8 89C134.5 88.4 136.9 88.5999 138.7 89.7999C139.7 87.1999 142.5 84.7 145.8 84.5C150 84.2 154.8 85.6 156 90.2C157.9 88.7 160.2 88.4 162.2 89Z" fill="#E8984D"/>
    <path d="M162.7 89.2C162.3 94.4 158.8 96 155.2 95.5C155.2 96.5 155 97.5 154.5 98.5C152.8 102.2 146.9 103.6 141.2 101C139.8 108.6 129.8 109 125.9 106.5C123.9 111 117.4 112.2 113.9 109.4C112.4 113.8 104.4 114.7 101.6 110.2C99 114 94.5 115.9 87.3 115.2C83.3 114.8 80.9 113.5 79.4 111.8C73.2 117.7 62.7 113.8 61.1 108.7C59.4 111 55.6 112.4 51 111.6C48.4 111.1 45.8 109.4 44.6 106.8C40.8 111.4 31.5 109 30.9 103.5C26.4 105.1 18.3 104.7 15.7 100.8C14.8 99.4 14.3 98.1 14 96.8C8.39997 97.2 4.79997 94.8 4.39997 90.8C2.09997 92 0.299969 94.5 0.399969 97.4C0.599969 101.9 4.49998 104.6 10.5 104.1C10.7 105.4 11.3 106.8 12.2 108.3C14.9 112.4 23.5 112.9 28.2 111.2C28.9 117 38.6 119.4 42.6 114.7C43.8 117.4 46.6 119.2 49.3 119.7C54.2 120.6 58.2 119.1 59.9 116.7C61.6 122.1 72.6 126.1 79.1 119.9C80.6 121.6 83.2 123 87.4 123.4C95 124.2 99.7 122.2 102.4 118.2C105.4 122.9 113.7 122 115.3 117.3C119 120.3 125.8 118.9 127.8 114.3C131.9 116.9 142.4 116.4 143.9 108.5C149.9 111.2 156.1 109.7 157.9 105.8C158.4 104.7 158.6 103.6 158.6 102.6C162.4 103.2 166.1 101.5 166.5 95.8C166.8 92.6 165.1 90.2 162.7 89.2Z" fill="#D98448"/>
    <path d="M23 92.7C22.9 92.6 22.7 92.5 22.6 92.4C22.2 92 21.7 91.8 21.2 91.7C21.4 91.2 21.5 90.7 21.4 90.2C21.2 88.9 20.8 88.1 19.8 87.3C19 86.7 17.9 86.8 16.9 86.9C16.1 87 15.3 87.6 14.7 88.2C13.3 89.5 12.5 91.7 13.5 93.4C14.3 94.8 16.1 95.3 17.6 95C17.6 95.4 17.6 95.9 17.8 96.3C18.1 96.9 18.2 97.0999 18.6 97.5999C19 98.0999 19.8 98.3 20.4 98.3C20.6 98.3 21.1 98.4 20.5 98.3C21.6 98.6 22.8 98.0999 23.4 97.0999C23.8 96.3999 23.8 95.7 23.8 94.9C23.8 94.3 23.7 93.7 23.4 93.3C23.4 93.1 23.2 92.9 23 92.7Z" fill="#F2B46D"/>
    <path d="M41.7001 98.6C41.6001 98.5 41.6 98.5 41.5 98.5C41.2 98.2 40.9 97.9 40.5 97.7C40.2 96.7 39.5 95.9 38.6 95.3C38 94.9 37.2 94.7 36.4 94.8C36.4 94.6 36.4 94.4 36.4 94.2C36.3 93.1 35.9001 92.3 35.2001 91.4C34.0001 90.1 31.7 90.1 30.5 91.4C29.6 92.3 29.5 93.5 30 94.5C29.8 95.4 30.1001 96.3 30.7001 97C31.2001 97.6 32.2 97.8 32.9 97.8C32.5 98.7 32.4001 99.8 32.7001 100.7C33.2001 102.5 34.9 103.2 36.5 103.1C37.1 103.2 37.7 103.2 38.4 103.2H38.5C39.5 103.6 40.7 103.5 41.6 102.6C42.7 101.6 42.9001 99.6 41.7001 98.6Z" fill="#F2B46D"/>
    <path d="M56.3001 97.5C55.3001 97.7 54.3001 98.2 53.5001 98.8C53.3001 98.6 53.0001 98.5 52.7001 98.4C53.9001 98.9 53.2001 98.6 52.9001 98.4C52.2001 98 51.6001 97.9 50.8001 97.8C50.2001 97.7 49.4001 98 48.8001 98.3C48.2001 98.7 47.4001 99.4 47.3001 100.2C47.2001 101 47.2001 101.2 47.3001 102C47.4001 103 48.5001 103.8 49.4001 104.1C49.7001 104.2 50.0001 104.2 50.3001 104.2H50.4001C51.1001 104.4 51.6001 104.3 52.2001 104.1C52.4001 104.5 52.7001 104.9 53.0001 105.2C53.4001 106.1 54.1001 106.9 55.2001 107.2C57.2001 107.9 59.7001 107.5 61.3001 106.3C63.8001 104.4 64.7001 101.2 62.5001 98.8C61.1001 97.2 58.3001 97.1 56.3001 97.5Z" fill="#F2B46D"/>
    <path d="M44.2999 94.2C43.1999 94.2 42.2 95.2 42.2 96.3C42.2 97.5 43.1999 98.4 44.2999 98.4C45.3999 98.4 46.3999 97.4 46.3999 96.3C46.3999 95.1 45.3999 94.2 44.2999 94.2Z" fill="#F2B46D"/>
    <path d="M99.0001 104.7C98.0001 104.7 97.1001 105.6 97.1001 106.6C97.1001 107.6 98.0001 108.5 99.0001 108.5C100 108.5 100.9 107.6 100.9 106.6C100.9 105.6 100 104.7 99.0001 104.7Z" fill="#F2B46D"/>
    <path d="M25.4001 98.7C24.5001 99 24.0001 100 24.7001 100.8C25.4001 101.5 26.5001 101 26.7001 100.2C26.7001 100.2 26.7001 100.2 26.8001 100.1C27.5001 99.3 26.2001 98.1 25.4001 98.7Z" fill="#F2B46D"/>
    <path d="M74.9 101.6C74.1 101.3 73.5 101.1 72.7 101C71.9 101 71.1 101.3 70.4 101.7C68.6 102.7 67.5999 105.2 68.7999 107C69.1999 107.6 69.6 108 70.2 108.3C70.6 108.8 71.1999 109.1 71.7999 109.3C72.6999 109.5 73.5 109.3 74.4 108.9L74.4999 108.8C75.0999 108.3 75.2 108.2 74.7 108.6C75 108.4 75.2999 108.2 75.4999 108C76.3999 107.2 76.8999 106.3 76.9999 105C77.0999 103.7 76.1 102.2 74.9 101.6Z" fill="#F2B46D"/>
    <path d="M94.8 101.3C93.5 100 91.7 99.4 90 99.2C87.8 99 85.9 99.6 84.6 101.5C84.4 101.7 84.3 102 84.2 102.2C83.2 101.8 82 101.7 81 101.9C80.8 101.9 80.5 102 80.3 102.1C78.8 102.6 77.8 104.2 78 105.8C78.2 107.5 79.2 108.9 81 109.3C82.5 109.6 83.9 109.2 85.1 108.3C85.9 109.1 86.9 109.8 88.1 110C88.4 110.1 88.7 110.1 89 110.1C89.7 110.2 90.3 110.2 91 110C91.1 110 91.2 110 91.3 110C95.4 110.1 97.6 104.3 94.8 101.3Z" fill="#F2B46D"/>
    <path d="M110.9 98.4C110.9 98.2 110.9 98.1 110.8 97.9C110.5 97.1 109.7 96.3 108.8 96.4C107.8 96.5 106.9 96.9 106.3 97.8C106 98.3 105.9 98.9 106 99.4C104.3 99.5 102.9 100.8 102.9 102.5C102.9 102.6 102.8 102.8 102.8 102.9C102.6 104.2 103.1 105.7 104.6 106C105.5 106.2 106.3 106.3 107.2 106.1C108.9 105.8 109.9 104.2 110 102.6C110 102.2 109.9 101.7 109.7 101.4C110.5 100.9 111 100.1 110.9 99.2C110.9 99.2 110.9 99.2 110.9 99.1C111 98.8 110.9 98.2 110.9 98.4Z" fill="#F2B46D"/>
    <path d="M142 93.9C141.3 93.9 140.7 94.1 140.2 94.5C140.2 94.4 140.2 94.4 140.1 94.3C139.8 93.5 140 94.1 140.1 94.3C140 93.9 139.7 93.4 139.5 93C138.3 91.2 136.4 90.5 134.3 90.8C135.5 90.6 134.1 90.8 133.7 90.9C133.1 91.1 132.5 91.4 132 91.9C131.1 92.8 130.7 94.2 131 95.5C131 95.6 131 95.7 131 95.8C130.5 95.8 130 95.8 129.6 96C128.7 96.3 128.2 96.8 127.6 97.4C127.3 97.3 127 97.2 126.6 97.2C125 97.2 123.7 98.4 123.4 99.9C123.1 99.6 122.7 99.4 122.4 99.2C121.3 98.6 120.2 98.5 119 98.8C117.7 99.1 116.7 100.4 116.7 101.8C116.3 102.4 116.3 103.3 116.4 104C116.6 104.8 117.2 105.5 117.9 105.9C118.7 106.4 119.7 106.6 120.6 106.5C121.6 106.4 122.9 106.1 123.6 105.3C124 104.8 124.4 104.3 124.6 103.6C124.6 103.4 124.7 103.3 124.7 103.1C125.3 103.5 125.9 103.8 126.7 103.8C127.2 103.8 127.7 103.7 128.1 103.5C128.3 103.6 128.5 103.7 128.6 103.8C128.9 104.3 129.5 104.9 130.1 105C131 105.1 131.7 105.3 132.6 105.1C133.9 104.8 134.8 103.6 135.2 102.4C135.4 102 135.4 101.5 135.4 101.1C136 101.1 136.6 101 137.2 100.9C138.2 100.7 139.1 100 139.7 99.2C140.2 99.8 141 100.2 141.9 100.2C143.5 100.2 144.9 98.8 144.9 97.2C145 95.2 143.7 93.9 142 93.9Z" fill="#F2B46D"/>
    <path d="M152.4 89C151.9 88 151 87.5 150 87.1C149.2 86.8 148 86.7 147.2 87C145.8 87.5 144.8 88.6 144.8 90.2C144.8 90.8 145 91.4 145.3 91.8C145.4 92.5 145.6 93 146.1 93.6C146.4 94 146.9 94.3 147.3 94.5C148.2 94.9 149.3 95.3 150.3 94.9C151.5 94.4 152.3 93.6 152.8 92.4C153 91.2 153 90 152.4 89Z" fill="#F2B46D"/>
    <path d="M83.4999 109.7C92.3999 109.7 120.8 108.1 127.4 103.9C126.2 74.7 123.5 43.7 119.2 30.6C113.4 13 99.8999 1.59996 83.3999 1.59996C66.8999 1.59996 53.3999 13 47.5999 30.6C43.2999 43.7 40.5999 74.7 39.3999 103.9C46.0999 108.2 74.4999 109.7 83.4999 109.7Z" fill="#CC6B33"/>
    <path d="M83.5001 91.5C65.9001 91.5 50.5001 82.1 41.8001 68C40.8001 79.3 40.0001 91.8 39.6001 103.9C46.2001 108.2 74.6001 109.7 83.5001 109.7C92.4001 109.7 120.8 108.1 127.4 103.9C126.9 91.8 126.2 79.4 125.2 68C116.4 82.2 101 91.5 83.5001 91.5Z" fill="#BA582F"/>
    <path d="M45.0001 104.9C46.1001 77.4 48.6001 48.1 52.7001 35.8C58.2001 19.2 70.9001 8.49998 86.4001 8.49998C102 8.49998 114.7 19.3 120.1 35.8C120.8 38.1 120.3 34 119.1 30.6C113.3 13 99.8 1.59996 83.3 1.59996C66.8 1.59996 53.3001 13 47.5001 30.6C43.2001 43.7 40.5 74.7 39.3 103.9C41.8 105.4 46.5001 105.9 45.0001 104.9Z" fill="#E6965C"/>
    <path d="M83.5 111.2C78 111.2 46.4 110.1 38.7 105.1C38.3 104.8 38 104.3 38 103.8C38.7 87.1 40.8 46.6 46.2 30.1C52.3 11.6 66.6 0.0999603 83.4 0.0999603C100.2 0.0999603 114.5 11.6 120.6 30.1C126 46.6 128.2 87.1 128.8 103.8C128.8 104.3 128.6 104.8 128.1 105.1C120.6 110.1 89 111.2 83.5 111.2ZM41 103.1C48.3 106.7 73.9 108.3 83.4 108.3C92.9 108.3 118.6 106.8 125.8 103.1C124.4 69.1 121.4 42.2 117.7 31.1C112 13.9 98.9 3.2 83.3 3.2C67.8 3.2 54.6 13.9 48.9 31.1C45.4 42.2 42.4 69 41 103.1Z" fill="black"/>
    <path d="M89.7999 64.3C89.7999 67.5 86.9999 72.9 83.4999 72.9C79.9999 72.9 77.2 67.5 77.2 64.3C79.1 64.9 81.2999 65.3 83.4999 65.3C85.6999 65.2 87.8999 64.9 89.7999 64.3Z" fill="#F5F5F5"/>
    <path d="M83.5 45.9C91.5 45.9 98 50.2 98 55.6C98 59.4 94.7 62.7 89.8 64.3C87.9 64.9 85.8 65.3 83.5 65.3C81.2 65.3 79.1 65 77.2 64.3C72.4 62.7 69 59.4 69 55.6C69 50.2 75.4 45.9 83.5 45.9Z" fill="#FFEABF"/>
    <path d="M89.9998 52C89.9998 54.3 87.0998 57.4 83.3998 57.4C79.7998 57.4 76.7998 54.4 76.7998 52C76.7998 49.7 79.6998 48.9 83.3998 48.9C87.0998 48.9 89.9998 49.7 89.9998 52Z" fill="black"/>
    <path d="M83.2998 51.3C83.3998 51.9 82.5998 52.5 81.3998 52.7C80.2998 52.9 79.2998 52.5 79.1998 51.9C79.0998 51.3 79.8998 50.7 81.0998 50.5C82.1998 50.3 83.1998 50.7 83.2998 51.3Z" fill="white"/>
    <path d="M99 55.5C99 49.6 92 44.8 83.5 44.8C75 44.8 68 49.6 68 55.5C68 59.6 71.3 63.1 76.2 64.9C76.5 68.3 79.5 73.8 83.5 73.8C87.5 73.8 90.5 68.3 90.8 64.9C95.6 63.2 99 59.6 99 55.5ZM78.3 65.6C79.7 65.9 81.2 66.1 82.7 66.2V71.7C80.6 71.1 78.8 68.1 78.3 65.6ZM84.2 71.7V66.2C85.7 66.1 87.2 65.9 88.6 65.6C88.1 68.1 86.3 71.1 84.2 71.7ZM83.5 64.2C76.1 64.2 70 60.3 70 55.5C70 50.7 76.1 46.8 83.5 46.8C90.9 46.8 97 50.7 97 55.5C97 60.3 90.9 64.2 83.5 64.2Z" fill="black"/>
    <path d="M73.7999 56.5H65.8999C65.5999 56.5 65.3999 56.3 65.3999 56C65.3999 55.7 65.5999 55.5 65.8999 55.5H73.7999C74.0999 55.5 74.2999 55.7 74.2999 56C74.2999 56.3 74.0999 56.5 73.7999 56.5Z" fill="black"/>
    <path d="M66.3999 62.5C66.1999 62.5 65.9999 62.4 65.9999 62.2C65.8999 62 65.9999 61.7 66.1999 61.5L73.5999 57.5999C73.7999 57.4999 74.0999 57.6 74.2999 57.8C74.3999 58 74.2999 58.3 74.0999 58.5L66.6999 62.4C66.4999 62.5 66.3999 62.5 66.3999 62.5Z" fill="black"/>
    <path d="M73.7999 54.5999C73.6999 54.5999 73.5999 54.6 73.5999 54.5L66.1999 50.5999C65.9999 50.4999 65.8999 50.2 65.9999 49.9C66.0999 49.7 66.3999 49.6 66.6999 49.7L74.0999 53.5999C74.2999 53.6999 74.3999 54 74.2999 54.3C74.0999 54.5 73.9999 54.5999 73.7999 54.5999Z" fill="black"/>
    <path d="M101 56.5H93.0999C92.7999 56.5 92.5999 56.3 92.5999 56C92.5999 55.7 92.7999 55.5 93.0999 55.5H101C101.3 55.5 101.5 55.7 101.5 56C101.5 56.3 101.3 56.5 101 56.5Z" fill="black"/>
    <path d="M100.5 62.5C100.4 62.5 100.3 62.5 100.3 62.4L92.8999 58.5C92.6999 58.4 92.5999 58.1 92.6999 57.8C92.7999 57.6 93.0999 57.4999 93.3999 57.5999L100.8 61.5C101 61.6 101.1 61.9 101 62.2C100.9 62.4 100.7 62.5 100.5 62.5Z" fill="black"/>
    <path d="M93.0998 54.5999C92.8998 54.5999 92.6999 54.5 92.6999 54.3C92.5999 54.1 92.6999 53.7999 92.8999 53.5999L100.3 49.7C100.5 49.6 100.8 49.7 101 49.9C101.1 50.1 101 50.3999 100.8 50.5999L93.3999 54.5C93.2999 54.6 93.1998 54.5999 93.0998 54.5999Z" fill="black"/>
    <path d="M65.6 45C65.6 47.9 63.2 50.3 60.3 50.3C57.4 50.3 55 47.9 55 45C55 42.1 57.4 39.7 60.3 39.7C63.3 39.7 65.6 42.1 65.6 45Z" fill="black"/>
    <path d="M58.7001 45.2C59.5838 45.2 60.3001 44.4836 60.3001 43.6C60.3001 42.7163 59.5838 42 58.7001 42C57.8164 42 57.1001 42.7163 57.1001 43.6C57.1001 44.4836 57.8164 45.2 58.7001 45.2Z" fill="white"/>
    <path d="M51.1001 33.7C56.8001 34.5 67.3001 36.6 74.0001 39.3C76.3001 34 76.8001 27.9 74.9001 22.2C75.0001 25.4 74.6001 27.8 73.9001 29.7C65.3001 25.6 57.2001 23.4 54.3001 22.8C53.0001 25.1 51.3001 30 51.1001 33.7Z" fill="black"/>
    <path d="M111.9 45C111.9 47.9 109.5 50.3 106.6 50.3C103.7 50.3 101.3 47.9 101.3 45C101.3 42.1 103.7 39.7 106.6 39.7C109.5 39.7 111.9 42.1 111.9 45Z" fill="black"/>
    <path d="M105 45.2C105.884 45.2 106.6 44.4836 106.6 43.6C106.6 42.7163 105.884 42 105 42C104.117 42 103.4 42.7163 103.4 43.6C103.4 44.4836 104.117 45.2 105 45.2Z" fill="white"/>
    <path d="M115.8 33.7C110.1 34.5 99.6002 36.6 92.9002 39.3C90.6002 34 90.1002 27.9 92.0002 22.2C91.9002 25.4 92.3002 27.8 93.0002 29.7C101.6 25.6 109.7 23.4 112.6 22.8C114 25.1 115.6 30 115.8 33.7Z" fill="black"/>
    <path d="M162.2 89C164.8 89.8 166.8 92.4 166.6 95.9C166.2 101.6 162.5 103.3 158.7 102.7C158.7 103.7 158.5 104.8 158 105.9C156.2 109.7 150 111.2 144 108.6C142.5 116.6 132 117 127.9 114.4C125.8 119.1 119 120.4 115.4 117.4C113.8 122 105.4 123 102.5 118.3C99.8 122.3 95.1 124.3 87.5 123.5C83.3 123.1 80.7 121.7 79.2 120C72.7 126.2 61.7 122.2 60 116.8C58.3 119.2 54.3 120.7 49.4 119.8C46.7 119.3 43.9 117.5 42.7 114.8C38.7 119.6 29 117.1 28.3 111.3C23.6 113 15 112.5 12.3 108.4C11.3 107 10.8 105.6 10.6 104.2C4.60002 104.7 0.700011 102 0.500011 97.5C0.300011 93.9 3.2 90.7999 6.3 90.2999C7.6 90.0999 8.90002 90.2 10.1 90.9C10.3 88.6 12.9 84.7 17.9 84.7C21.2 84.7 24.9 86.5 25.4 91.2C29.7 83.5 39 86.8999 40.3 91.5999C44.2 90.0999 49.9 92.6 50.5 96.7C52.7 94.1 56.5 93.3999 59.3 93.5999C62.1 93.7999 64.7 95.2 66.3 97C69.5 92.9 78 94.5 78.5 98.9C80.4 96.4 83.4 94.7 86.7 94.4C91.1 94 95.1 95.8 97.6 98.2C98.7 93.8 102.6 92.0999 105.6 91.7999C109.1 91.3999 114.2 92.8999 115.7 98.0999C116.4 94.5999 122 92.8999 124 96.7999C124.6 92.7999 127.2 90 131.8 89C134.5 88.4 136.9 88.5999 138.7 89.7999C139.7 87.1999 142.5 84.7 145.8 84.5C150 84.2 154.8 85.6 156 90.2C157.9 88.7 160.2 88.4 162.2 89Z" fill="#E8984D"/>
    <path d="M162.7 89.2C162.3 94.4 158.8 96 155.2 95.5C155.2 96.5 155 97.5 154.5 98.5C152.8 102.2 146.9 103.6 141.2 101C139.8 108.6 129.8 109 125.9 106.5C123.9 111 117.4 112.2 113.9 109.4C112.4 113.8 104.4 114.7 101.6 110.2C99 114 94.5 115.9 87.3 115.2C83.3 114.8 80.9 113.5 79.4 111.8C73.2 117.7 62.7 113.8 61.1 108.7C59.4 111 55.6 112.4 51 111.6C48.4 111.1 45.8 109.4 44.6 106.8C40.8 111.4 31.5 109 30.9 103.5C26.4 105.1 18.3 104.7 15.7 100.8C14.8 99.4 14.3 98.1 14 96.8C8.39997 97.2 4.79997 94.8 4.39997 90.8C2.09997 92 0.299969 94.5 0.399969 97.4C0.599969 101.9 4.49998 104.6 10.5 104.1C10.7 105.4 11.3 106.8 12.2 108.3C14.9 112.4 23.5 112.9 28.2 111.2C28.9 117 38.6 119.4 42.6 114.7C43.8 117.4 46.6 119.2 49.3 119.7C54.2 120.6 58.2 119.1 59.9 116.7C61.6 122.1 72.6 126.1 79.1 119.9C80.6 121.6 83.2 123 87.4 123.4C95 124.2 99.7 122.2 102.4 118.2C105.4 122.9 113.7 122 115.3 117.3C119 120.3 125.8 118.9 127.8 114.3C131.9 116.9 142.4 116.4 143.9 108.5C149.9 111.2 156.1 109.7 157.9 105.8C158.4 104.7 158.6 103.6 158.6 102.6C162.4 103.2 166.1 101.5 166.5 95.8C166.8 92.6 165.1 90.2 162.7 89.2Z" fill="#D98448"/>
    <path d="M23 92.7C22.9 92.6 22.7 92.5 22.6 92.4C22.2 92 21.7 91.8 21.2 91.7C21.4 91.2 21.5 90.7 21.4 90.2C21.2 88.9 20.8 88.1 19.8 87.3C19 86.7 17.9 86.8 16.9 86.9C16.1 87 15.3 87.6 14.7 88.2C13.3 89.5 12.5 91.7 13.5 93.4C14.3 94.8 16.1 95.3 17.6 95C17.6 95.4 17.6 95.9 17.8 96.3C18.1 96.9 18.2 97.0999 18.6 97.5999C19 98.0999 19.8 98.3 20.4 98.3C20.6 98.3 21.1 98.4 20.5 98.3C21.6 98.6 22.8 98.0999 23.4 97.0999C23.8 96.3999 23.8 95.7 23.8 94.9C23.8 94.3 23.7 93.7 23.4 93.3C23.4 93.1 23.2 92.9 23 92.7Z" fill="#F2B46D"/>
    <path d="M41.7001 98.6C41.6001 98.5 41.6 98.5 41.5 98.5C41.2 98.2 40.9 97.9 40.5 97.7C40.2 96.7 39.5 95.9 38.6 95.3C38 94.9 37.2 94.7 36.4 94.8C36.4 94.6 36.4 94.4 36.4 94.2C36.3 93.1 35.9001 92.3 35.2001 91.4C34.0001 90.1 31.7 90.1 30.5 91.4C29.6 92.3 29.5 93.5 30 94.5C29.8 95.4 30.1001 96.3 30.7001 97C31.2001 97.6 32.2 97.8 32.9 97.8C32.5 98.7 32.4001 99.8 32.7001 100.7C33.2001 102.5 34.9 103.2 36.5 103.1C37.1 103.2 37.7 103.2 38.4 103.2H38.5C39.5 103.6 40.7 103.5 41.6 102.6C42.7 101.6 42.9001 99.6 41.7001 98.6Z" fill="#F2B46D"/>
    <path d="M56.3001 97.5C55.3001 97.7 54.3001 98.2 53.5001 98.8C53.3001 98.6 53.0001 98.5 52.7001 98.4C53.9001 98.9 53.2001 98.6 52.9001 98.4C52.2001 98 51.6001 97.9 50.8001 97.8C50.2001 97.7 49.4001 98 48.8001 98.3C48.2001 98.7 47.4001 99.4 47.3001 100.2C47.2001 101 47.2001 101.2 47.3001 102C47.4001 103 48.5001 103.8 49.4001 104.1C49.7001 104.2 50.0001 104.2 50.3001 104.2H50.4001C51.1001 104.4 51.6001 104.3 52.2001 104.1C52.4001 104.5 52.7001 104.9 53.0001 105.2C53.4001 106.1 54.1001 106.9 55.2001 107.2C57.2001 107.9 59.7001 107.5 61.3001 106.3C63.8001 104.4 64.7001 101.2 62.5001 98.8C61.1001 97.2 58.3001 97.1 56.3001 97.5Z" fill="#F2B46D"/>
    <path d="M44.2999 94.2C43.1999 94.2 42.2 95.2 42.2 96.3C42.2 97.5 43.1999 98.4 44.2999 98.4C45.3999 98.4 46.3999 97.4 46.3999 96.3C46.3999 95.1 45.3999 94.2 44.2999 94.2Z" fill="#F2B46D"/>
    <path d="M99.0001 104.7C98.0001 104.7 97.1001 105.6 97.1001 106.6C97.1001 107.6 98.0001 108.5 99.0001 108.5C100 108.5 100.9 107.6 100.9 106.6C100.9 105.6 100 104.7 99.0001 104.7Z" fill="#F2B46D"/>
    <path d="M25.4001 98.7C24.5001 99 24.0001 100 24.7001 100.8C25.4001 101.5 26.5001 101 26.7001 100.2C26.7001 100.2 26.7001 100.2 26.8001 100.1C27.5001 99.3 26.2001 98.1 25.4001 98.7Z" fill="#F2B46D"/>
    <path d="M74.9 101.6C74.1 101.3 73.5 101.1 72.7 101C71.9 101 71.1 101.3 70.4 101.7C68.6 102.7 67.5999 105.2 68.7999 107C69.1999 107.6 69.6 108 70.2 108.3C70.6 108.8 71.1999 109.1 71.7999 109.3C72.6999 109.5 73.5 109.3 74.4 108.9L74.4999 108.8C75.0999 108.3 75.2 108.2 74.7 108.6C75 108.4 75.2999 108.2 75.4999 108C76.3999 107.2 76.8999 106.3 76.9999 105C77.0999 103.7 76.1 102.2 74.9 101.6Z" fill="#F2B46D"/>
    <path d="M94.8 101.3C93.5 100 91.7 99.4 90 99.2C87.8 99 85.9 99.6 84.6 101.5C84.4 101.7 84.3 102 84.2 102.2C83.2 101.8 82 101.7 81 101.9C80.8 101.9 80.5 102 80.3 102.1C78.8 102.6 77.8 104.2 78 105.8C78.2 107.5 79.2 108.9 81 109.3C82.5 109.6 83.9 109.2 85.1 108.3C85.9 109.1 86.9 109.8 88.1 110C88.4 110.1 88.7 110.1 89 110.1C89.7 110.2 90.3 110.2 91 110C91.1 110 91.2 110 91.3 110C95.4 110.1 97.6 104.3 94.8 101.3Z" fill="#F2B46D"/>
    <path d="M110.9 98.4C110.9 98.2 110.9 98.1 110.8 97.9C110.5 97.1 109.7 96.3 108.8 96.4C107.8 96.5 106.9 96.9 106.3 97.8C106 98.3 105.9 98.9 106 99.4C104.3 99.5 102.9 100.8 102.9 102.5C102.9 102.6 102.8 102.8 102.8 102.9C102.6 104.2 103.1 105.7 104.6 106C105.5 106.2 106.3 106.3 107.2 106.1C108.9 105.8 109.9 104.2 110 102.6C110 102.2 109.9 101.7 109.7 101.4C110.5 100.9 111 100.1 110.9 99.2C110.9 99.2 110.9 99.2 110.9 99.1C111 98.8 110.9 98.2 110.9 98.4Z" fill="#F2B46D"/>
    <path d="M142 93.9C141.3 93.9 140.7 94.1 140.2 94.5C140.2 94.4 140.2 94.4 140.1 94.3C139.8 93.5 140 94.1 140.1 94.3C140 93.9 139.7 93.4 139.5 93C138.3 91.2 136.4 90.5 134.3 90.8C135.5 90.6 134.1 90.8 133.7 90.9C133.1 91.1 132.5 91.4 132 91.9C131.1 92.8 130.7 94.2 131 95.5C131 95.6 131 95.7 131 95.8C130.5 95.8 130 95.8 129.6 96C128.7 96.3 128.2 96.8 127.6 97.4C127.3 97.3 127 97.2 126.6 97.2C125 97.2 123.7 98.4 123.4 99.9C123.1 99.6 122.7 99.4 122.4 99.2C121.3 98.6 120.2 98.5 119 98.8C117.7 99.1 116.7 100.4 116.7 101.8C116.3 102.4 116.3 103.3 116.4 104C116.6 104.8 117.2 105.5 117.9 105.9C118.7 106.4 119.7 106.6 120.6 106.5C121.6 106.4 122.9 106.1 123.6 105.3C124 104.8 124.4 104.3 124.6 103.6C124.6 103.4 124.7 103.3 124.7 103.1C125.3 103.5 125.9 103.8 126.7 103.8C127.2 103.8 127.7 103.7 128.1 103.5C128.3 103.6 128.5 103.7 128.6 103.8C128.9 104.3 129.5 104.9 130.1 105C131 105.1 131.7 105.3 132.6 105.1C133.9 104.8 134.8 103.6 135.2 102.4C135.4 102 135.4 101.5 135.4 101.1C136 101.1 136.6 101 137.2 100.9C138.2 100.7 139.1 100 139.7 99.2C140.2 99.8 141 100.2 141.9 100.2C143.5 100.2 144.9 98.8 144.9 97.2C145 95.2 143.7 93.9 142 93.9Z" fill="#F2B46D"/>
    <path d="M152.4 89C151.9 88 151 87.5 150 87.1C149.2 86.8 148 86.7 147.2 87C145.8 87.5 144.8 88.6 144.8 90.2C144.8 90.8 145 91.4 145.3 91.8C145.4 92.5 145.6 93 146.1 93.6C146.4 94 146.9 94.3 147.3 94.5C148.2 94.9 149.3 95.3 150.3 94.9C151.5 94.4 152.3 93.6 152.8 92.4C153 91.2 153 90 152.4 89Z" fill="#F2B46D"/>
    <path d="M41.1999 103.6L41.2999 103.7C36.8999 105.5 32.5999 106.6 28.8999 106.9C30.8999 101.1 36.2999 94.7 38.0999 93.1L38.8999 92.8C40.0999 95.7 40.8999 99.3 41.1999 103.6Z" fill="#FFEABF"/>
    <path d="M38.8 92.8L38 93.1C31.2 97.9 26.2 99.5 20.5 100.5C22.3 95.8 26.2 89.6 32 85.4L32.5 84.7C35 86.6 37.2 89.3 38.8 92.8Z" fill="#FFEABF"/>
    <path d="M23.3 81.2C26.3 81.5 29.6001 82.6 32.5001 84.8L32.0001 85.5C25.0001 89.5 19.3 91.4 14.8 93.4C16.2 88.7 18.6 84.5 23.3 81.2Z" fill="#FFEABF"/>
    <path d="M54.7999 80.7C58.2999 85.1 58.4999 93.3 49.2999 99.5C46.6999 101.2 43.9 102.7 41.2 103.8L41.0999 103.7C40.8999 99.4 40 95.9 38.7 92.9C37.1 89.3 34.8999 86.7 32.3999 84.9C29.4999 82.7 26.2 81.6 23.2 81.3C25.5 79.6 28.3999 78.2 31.9999 77C40.3999 74.2 50.7999 75.7 54.7999 80.7Z" fill="#CC6B33"/>
    <path d="M40.8 74C37.6 74 34.5 74.5 31.6 75.4C21.6 78.7 16 84.1 13.4 92.9C13.2 93.5 13.4 94.1 13.8 94.5C14.2 94.9 14.9 95 15.4 94.7C16.6 94.2 17.9 93.6 19.2 93.1C20.7 92.5 22.4 91.8 24.1 91C21.7 94.1 20 97.3 19 99.9C18.8 100.4 18.9 101 19.2 101.4C19.5 101.8 20.1 102 20.6 101.9C24.2 101.3 27.6 100.4 31.3 98.6C29.7 101 28.2 103.7 27.3 106.2C27.1 106.7 27.2 107.2 27.5 107.6C27.8 108 28.2 108.2 28.7 108.2H28.8C35.7 107.6 43.6 104.7 50 100.5C56 96.5 57.8 92 58.3 89C58.8 85.6 58 82.2 55.9 79.6C53.2 76.2 47.5 74 40.8 74ZM18.1 90.4C17.9 90.5 17.6 90.6 17.4 90.7C18.6 87.9 20.7 84.9 24.3 82.4C26.4 82.7 28.5 83.5 30.5 84.7C25.8 87.2 21.7 88.9 18.1 90.4ZM23 98.5C25 94.6 28.3 89.9 32.8 86.7C32.9 86.6 32.9 86.6 33 86.5C34.6 87.9 36 89.7 37.2 91.9H37.1C31.6 95.8 27.4 97.5 23 98.5ZM38.5 94.8C39.3 97 39.9 99.6 40.1 102.6C37.1 103.8 34.1 104.7 31.2 105.1C33.3 100.7 36.9 96.4 38.5 94.8ZM55.4 88.7C55 91.2 53.5 94.8 48.4 98.2C46.4 99.6 44.2 100.8 41.9 101.8C40.7 89.2 33.6 82.9 26.6 80.9C28.3 80 30.2 79.1 32.4 78.4C34.9 77.6 37.8 77.1 40.6 77.1C46.3 77.1 51.2 78.8 53.5 81.6C55.2 83.5 55.8 86.1 55.4 88.7Z" fill="black"/>
    <path d="M134.8 76.9C138.4 78.1 141.3 79.5 143.6 81.2C140.6 81.5 137.3 82.6 134.4 84.8C131.9 86.7 129.7 89.3 128.1 92.8C126.8 95.7 125.9 99.3 125.7 103.5L125.6 103.7C122.8 102.6 120.1 101.1 117.5 99.4C108.3 93.3 108.5 85.1 112 80.6C116.1 75.7 126.5 74.2 134.8 76.9Z" fill="#CC6B33"/>
    <path d="M128.9 93.2C130.7 94.7 136.1 101.2 138.1 107C134.4 106.7 130.1 105.6 125.7 103.8L125.8 103.6C126 99.3 126.9 95.8 128.2 92.9L128.9 93.2Z" fill="#FFEABF"/>
    <path d="M134.9 85.5C140.7 89.7 144.7 95.9 146.4 100.6C140.6 99.6 135.6 97.9 128.9 93.2L128.1 92.9C129.7 89.3 131.9 86.7 134.4 84.9L134.9 85.5Z" fill="#FFEABF"/>
    <path d="M143.6 81.2C148.3 84.5 150.7 88.7 152.1 93.4C147.6 91.4 141.9 89.5 134.9 85.5L134.4 84.8C137.3 82.6 140.6 81.5 143.6 81.2Z" fill="#FFEABF"/>
    <path d="M153.4 92.8C150.7 84.1 145.1 78.8 135.3 75.5C132.5 74.6 129.3 74.1 126.1 74.1C119.4 74.1 113.7 76.2 110.9 79.8C108.8 82.4 108 85.8 108.5 89.2C109 92.3 110.8 96.7 116.8 100.7C123.2 105 131.1 107.9 138 108.4H138.1C138.9 108.4 139.6 107.7 139.6 106.9C139.6 106.6 139.5 106.4 139.4 106.2C138.5 103.7 137 101.1 135.4 98.8C139.1 100.6 142.5 101.5 146.1 102.1C146.6 102.2 147.2 102 147.5 101.6C147.8 101.2 147.9 100.6 147.7 100.1C146.7 97.5 145 94.3 142.6 91.2C144.3 92 145.9 92.6 147.5 93.3C148.9 93.9 150.1 94.4 151.3 94.9C151.5 95 151.7 95 151.9 95C152.7 95 153.4 94.3 153.4 93.5C153.6 93.2 153.5 93 153.4 92.8ZM111.4 88.7C111 86.1 111.7 83.5 113.2 81.6C115.4 78.8 120.4 77.1 126.1 77.1C128.9 77.1 131.8 77.5 134.3 78.4C136.5 79.1 138.5 80 140.1 80.9C133.1 82.9 126 89.2 124.8 101.8C122.5 100.8 120.4 99.6 118.3 98.2C113.3 94.8 111.8 91.2 111.4 88.7ZM135.7 105.1C132.8 104.6 129.8 103.8 126.8 102.6C127 99.6 127.6 97 128.4 94.8C130 96.4 133.6 100.7 135.7 105.1ZM143.9 98.5C139.5 97.5 135.3 95.8 129.8 91.9H129.7C130.8 89.7 132.3 87.9 133.9 86.5C134 86.6 134 86.7 134.1 86.7C138.6 90 141.9 94.6 143.9 98.5ZM148.8 90.4C145.2 88.9 141.2 87.2 136.4 84.6C138.4 83.4 140.5 82.7 142.6 82.3C146.2 84.9 148.2 87.8 149.5 90.6C149.2 90.6 149 90.5 148.8 90.4Z" fill="black"/>
</svg>
