<svg width="168" height="103" viewBox="0 0 168 103" fill="none" xmlns="http://www.w3.org/2000/svg">
    <path d="M126.2 46C130.4 42.9 137.2 45.2 137.2 52.6C139.2 48.5 147.9 49.5 147.5 56.4C150.2 54.6 154 56.2 153.8 60.1C157.5 58.1 164.2 62.2 162.7 68.2C160.7 67.6 158.4 67.9 156.4 69.5C155.2 65 150.4 63.5 146.2 63.8C142.9 64 140.2 66.5 139.1 69.1C137.3 67.9 134.9 67.7 132.2 68.3C127.6 69.3 125 72.2 124.4 76.1C122.4 72.3 116.7 73.9 116.1 77.4C114.6 72.2 109.5 70.7 106 71.1C103 71.4 99.1 73.1 98 77.5C95.5 75.1 91.5 73.3 87.1 73.7C83.8 74 80.7 75.7 78.9 78.2C78.4 73.8 69.9 72.1 66.7 76.3C65.2 74.5 62.6 73.1 59.7 72.9C56.9 72.7 53.1 73.4 50.9 76C50.3 71.9 44.6 69.4 40.7 70.9C39.5 66.2 30.2 62.8 25.8 70.5C25.3 65.8 21.6 64 18.3 64C13.3 64 10.6 67.8 10.5 70.2C9.30001 69.5 8.00001 69.4 6.70001 69.6C5.10001 63.7 12.1 59.2 16 61.8C15 55.8 22.3 53.3 25.7 57.3C24.3 51.9 29.9 48.1 34.3 49.7C35.8 44.1 45.1 40.9 49.8 47.1C50.5 43.1 54.4 40.5 59.2 41.1C61.4 41.4 63.2 42.5 64.3 43.9C66 39.4 73 38.4 75.3 42.4C76.8 34.3 90.5 30.6 96.1 39.2C97.9 38.3 100.2 38 102.9 38.7C107.1 39.8 109.3 43.3 109.6 46C112 38.7 123.9 40 126.2 46Z" fill="#D98448"/>
    <path d="M25.8001 70.4C30.1001 62.7 39.4001 66.1 40.7001 70.8C44.6001 69.3 50.3001 71.8 50.9001 75.9C53.1001 73.3 56.9001 72.6 59.7001 72.8C62.5001 73 65.1001 74.4 66.7001 76.2C69.9001 72.1 78.4001 73.7 78.9001 78.1C80.8001 75.6 83.8001 73.9 87.1001 73.6C91.5001 73.2 95.5001 75 98.0001 77.4C99.1001 73 103 71.3 106 71C109.5 70.6 114.6 72.1 116.1 77.3C116.8 73.8 122.4 72.1 124.4 76C125 72 127.6 69.2 132.2 68.2C134.9 67.6 137.3 67.8 139.1 69C140.1 66.5 142.7 64.2 145.7 63.8C143.2 61.4 138.4 61.7 137 64.6C137 57.2 130.2 55 126 58C123.7 52 111.8 50.7 109.3 58C109 55.3 106.8 51.8 102.6 50.7C100 50 97.7001 50.3 95.8001 51.2C90.3001 42.7 76.5001 46.4 75.0001 54.4C72.7001 50.4 65.7001 51.3 64.0001 55.9C62.9001 54.5 61.1001 53.4 58.9001 53.1C54.1001 52.4 50.2001 55.1 49.5001 59.1C44.8001 52.9 35.5001 56.2 34.0001 61.7C29.7001 60.1 24.0001 63.9 25.4001 69.3L25.3001 69.2C25.7001 69.5 25.8001 69.9 25.8001 70.4Z" fill="#B85E37"/>
    <path d="M88.7 86.7C119.738 86.7 144.9 79.8947 144.9 71.5C144.9 63.1053 119.738 56.3 88.7 56.3C57.6616 56.3 32.5 63.1053 32.5 71.5C32.5 79.8947 57.6616 86.7 88.7 86.7Z" fill="#663629"/>
    <path d="M162.8 68.0999C165.4 68.8999 167.4 71.5 167.2 75C166.8 80.7 163.1 82.4 159.3 81.8C159.3 82.8 159.1 83.9 158.6 85C156.8 88.8 150.6 90.3 144.6 87.7C143.1 95.7 132.6 96.1 128.5 93.5C126.4 98.2 119.6 99.5 116 96.5C114.4 101.1 106 102.1 103.1 97.4C100.4 101.4 95.6999 103.4 88.0999 102.6C83.8999 102.2 81.2999 100.8 79.7999 99.0999C73.2999 105.3 62.2999 101.3 60.5999 95.9C58.8999 98.3 54.8999 99.8 49.9999 98.9C47.2999 98.4 44.4998 96.6 43.2998 93.9C39.2998 98.7 29.5999 96.2 28.8999 90.4C24.1999 92.1 15.5999 91.6 12.8999 87.5C11.8999 86.1 11.3999 84.7 11.1999 83.3C5.19986 83.8 1.29986 81.0999 1.09986 76.5999C0.899865 72.9999 3.79985 69.9 6.89985 69.4C8.19985 69.2 9.49986 69.3 10.6999 70C10.8999 67.7 13.4999 63.8 18.4999 63.8C21.7999 63.8 25.4999 65.6 25.9999 70.3C30.2999 62.6 39.5999 66 40.8999 70.7C44.7999 69.2 50.4999 71.7 51.0999 75.8C53.2999 73.2 57.0999 72.5 59.8999 72.7C62.6999 72.9 65.2999 74.2999 66.8999 76.0999C70.0999 71.9999 78.5999 73.6 79.0999 78C80.9999 75.5 83.9998 73.8 87.2999 73.5C91.6999 73.1 95.6999 74.9 98.1999 77.3C99.2999 72.9 103.2 71.2 106.2 70.9C109.7 70.5 114.8 72 116.3 77.2C117 73.7 122.6 72 124.6 75.9C125.2 71.9 127.8 69.0999 132.4 68.0999C135.1 67.4999 137.5 67.7 139.3 68.9C140.3 66.3 143.1 63.7999 146.4 63.5999C150.6 63.2999 155.4 64.7 156.6 69.3C158.4 67.8 160.8 67.4999 162.8 68.0999Z" fill="#E8984D"/>
    <path d="M163.2 68.3C162.8 73.5 159.3 75.1 155.7 74.6C155.7 75.6 155.5 76.6 155 77.6C153.3 81.3 147.4 82.7 141.7 80.1C140.3 87.7 130.3 88.1 126.4 85.6C124.4 90.1 117.9 91.3 114.4 88.5C112.9 92.9 104.9 93.8 102.1 89.3C99.5 93.1 95 95 87.8 94.3C83.8 93.9 81.4 92.6 79.9 90.9C73.7 96.8 63.2 92.9 61.6 87.8C59.9 90.1 56.1 91.5 51.5 90.7C48.9 90.2 46.3 88.5 45.1 85.9C41.3 90.5 32 88.1 31.4 82.6C26.9 84.2 18.8 83.8 16.2 79.9C15.3 78.5 14.8 77.2 14.5 75.9C8.89997 76.3 5.29997 73.9 4.89997 69.9C2.59997 71.1 0.799969 73.6 0.899969 76.5C1.09997 81 4.99998 83.7 11 83.2C11.2 84.5 11.8 85.9 12.7 87.4C15.4 91.5 24 92 28.7 90.3C29.4 96.1 39.1 98.5 43.1 93.8C44.3 96.5 47.1 98.3 49.8 98.8C54.7 99.7 58.7 98.2 60.4 95.8C62.1 101.2 73.1 105.2 79.6 99C81.1 100.7 83.7 102.1 87.9 102.5C95.5 103.3 100.2 101.3 102.9 97.3C105.9 102 114.2 101.1 115.8 96.4C119.5 99.4 126.3 98 128.3 93.4C132.4 96 142.9 95.5 144.4 87.6C150.4 90.3 156.6 88.8 158.4 84.9C158.9 83.8 159.1 82.7 159.1 81.7C162.9 82.3 166.6 80.6 167 74.9C167.4 71.7 165.6 69.3 163.2 68.3Z" fill="#D98448"/>
    <path d="M23.5999 71.8C23.4999 71.7 23.2999 71.6 23.1999 71.5C22.7999 71.1 22.2999 70.9 21.7999 70.8C21.9999 70.3 22.0999 69.8 21.9999 69.3C21.7999 68 21.3999 67.2 20.3999 66.4C19.5999 65.8 18.4999 65.9 17.4999 66C16.6999 66.1 15.8999 66.7 15.2999 67.3C13.8999 68.6 13.0999 70.8 14.0999 72.5C14.8999 73.9 16.6999 74.4 18.1999 74.1C18.1999 74.5 18.1999 75 18.3999 75.4C18.6999 76 18.7999 76.2 19.1999 76.7C19.5999 77.2 20.3999 77.4 20.9999 77.4C21.1999 77.4 21.6999 77.5 21.0999 77.4C22.1999 77.7 23.3999 77.2 23.9999 76.2C24.3999 75.5 24.3999 74.8 24.3999 74C24.3999 73.4 24.2999 72.8 23.9999 72.4C23.8999 72.2 23.7999 72 23.5999 71.8Z" fill="#F2B46D"/>
    <path d="M42.1998 77.7C42.0998 77.6 42.0998 77.6 41.9998 77.6C41.6998 77.3 41.3998 77 40.9998 76.8C40.6998 75.8 39.9998 75 39.0998 74.4C38.4998 74 37.6998 73.8 36.8998 73.9C36.8998 73.7 36.8998 73.5 36.8998 73.3C36.7998 72.2 36.3998 71.4 35.6998 70.5C34.4998 69.2 32.1998 69.2 30.9998 70.5C30.0998 71.4 29.9998 72.6 30.4998 73.6C30.2998 74.5 30.5998 75.4 31.1998 76.1C31.6998 76.7 32.6998 76.9 33.3998 76.9C32.9998 77.8 32.8998 78.9 33.1998 79.8C33.6998 81.6 35.3998 82.3 36.9998 82.2C37.5998 82.3 38.1998 82.3 38.8998 82.3H38.9998C39.9998 82.7 41.1998 82.6 42.0998 81.7C43.1998 80.7 43.3998 78.7 42.1998 77.7Z" fill="#F2B46D"/>
    <path d="M56.9 76.6C55.9 76.8 54.9 77.3 54.1 77.9C53.9 77.7 53.5999 77.6 53.2999 77.5C54.4999 78 53.8 77.7 53.5 77.5C52.8 77.1 52.2 77 51.4 76.9C50.8 76.8 50 77.1 49.4 77.4C48.8 77.8 48 78.5 47.9 79.3C47.8 80.1 47.8 80.3 47.9 81.1C48 82.1 49.1 82.9 50 83.2C50.3 83.3 50.6 83.3 50.9 83.3H51C51.7 83.5 52.1999 83.4 52.7999 83.2C52.9999 83.6 53.3 84 53.6 84.3C54 85.2 54.6999 86 55.7999 86.3C57.7999 87 60.3 86.6 61.9 85.4C64.4 83.5 65.3 80.3 63.1 77.9C61.7 76.3 58.9 76.2 56.9 76.6Z" fill="#F2B46D"/>
    <path d="M44.7999 73.3C43.6999 73.3 42.7 74.3 42.7 75.4C42.7 76.6 43.6999 77.5 44.7999 77.5C45.8999 77.5 46.8999 76.5 46.8999 75.4C46.8999 74.2 45.9999 73.3 44.7999 73.3Z" fill="#F2B46D"/>
    <path d="M99.4998 83.8C98.4998 83.8 97.5999 84.7 97.5999 85.7C97.5999 86.7 98.4998 87.6 99.4998 87.6C100.5 87.6 101.4 86.7 101.4 85.7C101.4 84.7 100.5 83.8 99.4998 83.8Z" fill="#F2B46D"/>
    <path d="M26 77.8C25.9 77.8 25.9 77.9 26 77.8C25.1 78.1 24.5999 79.1 25.2999 79.9C25.9999 80.6 27.0999 80.1 27.2999 79.3C27.2999 79.3 27.2999 79.3 27.3999 79.2C27.9999 78.4 26.8 77.2 26 77.8Z" fill="#F2B46D"/>
    <path d="M75.3999 80.7C74.5999 80.4 74 80.2 73.2 80.1C72.4 80.1 71.5999 80.4 70.8999 80.8C69.0999 81.8 68.0999 84.3 69.2999 86.1C69.6999 86.7 70.1 87.1 70.7 87.4C71.1 87.9 71.6999 88.2 72.2999 88.4C73.1999 88.6 73.9999 88.4 74.8999 88L74.9999 87.9C75.5999 87.4 75.7 87.3 75.2 87.7C75.5 87.5 75.7999 87.3 75.9999 87.1C76.8999 86.3 77.3999 85.4 77.4999 84.1C77.6999 82.8 76.5999 81.3 75.3999 80.7Z" fill="#F2B46D"/>
    <path d="M95.2998 80.4C93.9998 79.1 92.1998 78.5 90.4998 78.3C88.2998 78.1 86.3998 78.7 85.0998 80.6C84.8998 80.8 84.7998 81.1 84.6998 81.3C83.6998 80.9 82.4998 80.8 81.4998 81C81.2998 81 80.9998 81.1 80.7998 81.2C79.2998 81.7 78.2998 83.3 78.4998 84.9C78.6998 86.6 79.6998 88 81.4998 88.4C82.9998 88.7 84.3998 88.3 85.5998 87.4C86.3998 88.2 87.3998 88.9 88.5998 89.1C88.8998 89.2 89.1998 89.2 89.4998 89.2C90.1998 89.3 90.7998 89.3 91.4998 89.1C91.5998 89.1 91.6998 89.1 91.7998 89.1C95.8998 89.2 98.0998 83.3 95.2998 80.4Z" fill="#F2B46D"/>
    <path d="M111.5 77.5C111.5 77.3 111.5 77.2 111.4 77C111.1 76.2 110.3 75.4 109.4 75.5C108.4 75.6 107.5 76 106.9 76.9C106.6 77.4 106.5 78 106.6 78.5C104.9 78.6 103.5 79.9 103.5 81.6C103.5 81.7 103.4 81.9 103.4 82C103.2 83.3 103.7 84.8 105.2 85.1C106.1 85.3 106.9 85.4 107.8 85.2C109.5 84.9 110.5 83.3 110.6 81.7C110.6 81.3 110.5 80.8 110.3 80.5C111.1 80 111.6 79.2 111.5 78.3C111.5 78.3 111.5 78.3 111.5 78.2C111.5 77.9 111.4 77.3 111.5 77.5Z" fill="#F2B46D"/>
    <path d="M142.6 73C141.9 73 141.3 73.2 140.8 73.6C140.8 73.5 140.8 73.5 140.7 73.4C140.4 72.6 140.6 73.2 140.7 73.4C140.6 73 140.3 72.5 140.1 72.1C138.9 70.3 137 69.6 134.9 69.9C136.1 69.7 134.7 69.9 134.3 70C133.7 70.2 133.1 70.5 132.6 71C131.7 71.9 131.3 73.3 131.6 74.6C131.6 74.7 131.6 74.8 131.6 74.9C131.1 74.9 130.6 74.9 130.2 75.1C129.3 75.4 128.8 75.9 128.2 76.5C127.9 76.4 127.6 76.3 127.2 76.3C125.6 76.3 124.3 77.5 124 79C123.7 78.7 123.3 78.5 123 78.3C121.9 77.7 120.8 77.6 119.6 77.9C118.3 78.2 117.3 79.5 117.3 80.9C116.9 81.5 116.9 82.4 117 83.1C117.2 83.9 117.8 84.6 118.5 85C119.3 85.5 120.3 85.7 121.2 85.6C122.2 85.5 123.5 85.2 124.2 84.4C124.6 83.9 125 83.4 125.2 82.7C125.2 82.5 125.3 82.4 125.3 82.2C125.9 82.6 126.5 82.9 127.3 82.9C127.8 82.9 128.3 82.8 128.7 82.6C128.9 82.7 129.1 82.8 129.2 82.9C129.5 83.4 130.1 84 130.7 84.1C131.6 84.2 132.3 84.4 133.2 84.2C134.5 83.9 135.4 82.7 135.8 81.5C136 81.1 136 80.6 136 80.2C136.6 80.2 137.2 80.1 137.8 80C138.8 79.8 139.7 79.1 140.3 78.3C140.8 78.9 141.6 79.3 142.5 79.3C144.1 79.3 145.5 77.9 145.5 76.3C145.5 74.7 144.2 73 142.6 73Z" fill="#F2B46D"/>
    <path d="M152.9 68.0999C152.4 67.0999 151.5 66.6 150.5 66.2C149.7 65.9 148.5 65.7999 147.7 66.0999C146.3 66.5999 145.3 67.7 145.3 69.3C145.3 69.9 145.5 70.5 145.8 70.9C145.9 71.6 146.1 72.1 146.6 72.7C146.9 73.1 147.4 73.3999 147.8 73.5999C148.7 73.9999 149.8 74.4 150.8 74C152 73.5 152.8 72.7 153.3 71.5C153.6 70.3 153.5 69.0999 152.9 68.0999Z" fill="#F2B46D"/>
    <mask id="mask0_1_5414" style="mask-type:luminance" maskUnits="userSpaceOnUse" x="40" y="0" width="89" height="87">
        <path d="M126.4 60.2C125.2 48.4 123.5 37.4 121.2 30.6C115.1 12.1 100.8 0.599976 84 0.599976C67.2 0.599976 52.9 12.1 46.8 30.6C44.3 38.1 42.6 50.5 41.3 63.4C40.8 68.7 40.3 74 40 79.2C49.7 83.8 67.9 86.9 88.8 86.9C104.2 86.9 118.2 85.2 128.3 82.5C127.8 75.3 127.2 67.6 126.4 60.2Z" fill="white"/>
    </mask>
    <g mask="url(#mask0_1_5414)">
        <path d="M83.9999 110.2C92.8999 110.2 121.3 108.6 127.9 104.4C126.7 75.2 124 44.2 119.7 31.1C113.9 13.5 100.4 2.09998 83.8999 2.09998C67.3999 2.09998 53.8999 13.5 48.0999 31.1C43.7999 44.2 41.0999 75.2 39.8999 104.4C46.6999 108.6 75.0999 110.2 83.9999 110.2Z" fill="#CC6B33"/>
        <path d="M84.0001 92C66.4001 92 51.0001 82.6 42.3001 68.5C41.3001 79.8 40.5001 92.3 40.1001 104.4C46.7001 108.7 75.1001 110.2 84.0001 110.2C92.9001 110.2 121.3 108.6 127.9 104.4C127.4 92.3 126.7 79.9 125.7 68.5C117 82.6 101.6 92 84.0001 92Z" fill="#BA582F"/>
        <path d="M45.5999 105.4C46.6999 77.9 49.1999 48.6 53.2999 36.3C58.7999 19.7 71.4999 9 86.9999 9C102.6 9 115.3 19.8 120.7 36.3C121.4 38.6 120.9 34.5 119.7 31.1C113.9 13.5 100.4 2.09998 83.8999 2.09998C67.3999 2.09998 53.8999 13.5 48.0999 31.1C43.7999 44.2 41.0999 75.2 39.8999 104.4C42.3999 105.8 47.0999 106.4 45.5999 105.4Z" fill="#E6965C"/>
        <path d="M84 111.7C78.5 111.7 46.9 110.6 39.2 105.6C38.8 105.3 38.5 104.8 38.5 104.3C39.2 87.6 41.3 47.1 46.7 30.6C52.8 12.1 67.1 0.599976 83.9 0.599976C100.7 0.599976 115 12.1 121.1 30.6C126.5 47.1 128.7 87.6 129.3 104.3C129.3 104.8 129.1 105.3 128.6 105.6C121.1 110.6 89.5 111.7 84 111.7ZM41.6 103.5C48.9 107.1 74.5 108.7 84 108.7C93.5 108.7 119.2 107.2 126.4 103.5C125 69.5 122 42.6 118.3 31.5C112.6 14.3 99.5 3.59998 83.9 3.59998C68.3 3.59998 55.2 14.3 49.5 31.5C46 42.6 43 69.5 41.6 103.5Z" fill="black"/>
        <path d="M90.2999 64.7C90.2999 67.9 87.4999 73.3 83.9999 73.3C80.4999 73.3 77.7 67.9 77.7 64.7C79.6 65.3 81.7999 65.7 83.9999 65.7C86.2999 65.6 88.3999 65.3 90.2999 64.7Z" fill="#F5F5F5"/>
        <path d="M84 46.3C92 46.3 98.5 50.6 98.5 56C98.5 59.8 95.2 63.1 90.3 64.7C88.4 65.3 86.2 65.7 84 65.7C81.7 65.7 79.6 65.4 77.7 64.7C72.9 63.1 69.5 59.8 69.5 56C69.5 50.6 76 46.3 84 46.3Z" fill="#FFEABF"/>
        <path d="M90.5999 52.4C90.5999 54.7 87.6999 57.8 83.9999 57.8C80.3999 57.8 77.3999 54.8 77.3999 52.4C77.3999 50.1 80.2999 49.3 83.9999 49.3C87.5999 49.3 90.5999 50.1 90.5999 52.4Z" fill="black"/>
        <path d="M83.7998 51.7C83.8998 52.3 83.0998 52.9 81.8998 53.1C80.7998 53.3 79.7998 52.9 79.6998 52.3C79.5998 51.7 80.3998 51.1 81.5998 50.9C82.6998 50.7 83.6998 51.1 83.7998 51.7Z" fill="white"/>
        <path d="M99.5 56C99.5 50.1 92.5 45.3 84 45.3C75.5 45.3 68.5 50.1 68.5 56C68.5 60.1 71.8 63.6 76.7 65.4C77 68.8 80 74.3 84 74.3C88 74.3 91 68.8 91.3 65.4C96.2 63.6 99.5 60 99.5 56ZM78.8 66C80.2 66.3 81.7 66.5 83.2 66.6V72.1C81.2 71.5 79.3 68.5 78.8 66ZM84.7 72.2V66.7C86.2 66.6 87.7 66.4 89.1 66.1C88.7 68.5 86.8 71.5 84.7 72.2ZM84 64.6C76.6 64.6 70.5 60.7 70.5 55.9C70.5 51.1 76.6 47.2 84 47.2C91.4 47.2 97.5 51.1 97.5 55.9C97.5 60.8 91.4 64.6 84 64.6Z" fill="black"/>
        <path d="M74.2999 56.9H66.3999C66.0999 56.9 65.8999 56.7 65.8999 56.4C65.8999 56.1 66.0999 55.9 66.3999 55.9H74.2999C74.5999 55.9 74.7999 56.1 74.7999 56.4C74.7999 56.7 74.5999 56.9 74.2999 56.9Z" fill="black"/>
        <path d="M66.8999 62.9C66.6999 62.9 66.4999 62.8 66.4999 62.6C66.3999 62.4 66.4999 62.1 66.6999 61.9L74.0999 58C74.2999 57.9 74.5999 58 74.7999 58.2C74.8999 58.4 74.7999 58.7 74.5999 58.9L67.1999 62.8C67.0999 62.9 66.9999 62.9 66.8999 62.9Z" fill="black"/>
        <path d="M74.2999 55C74.1999 55 74.0999 55 74.0999 54.9L66.6999 51C66.4999 50.9 66.3999 50.6 66.4999 50.3C66.5999 50.1 66.8999 50 67.1999 50.1L74.5999 54C74.7999 54.1 74.8999 54.4 74.7999 54.7C74.6999 54.9 74.4999 55 74.2999 55Z" fill="black"/>
        <path d="M101.6 56.9H93.7C93.4 56.9 93.2 56.7 93.2 56.4C93.2 56.1 93.4 55.9 93.7 55.9H101.6C101.9 55.9 102.1 56.1 102.1 56.4C102.1 56.7 101.8 56.9 101.6 56.9Z" fill="black"/>
        <path d="M101.1 62.9C101 62.9 100.9 62.9 100.9 62.8L93.5 58.9C93.3 58.8 93.2 58.5 93.3 58.2C93.4 58 93.7 57.9 94 58L101.4 61.9C101.6 62 101.7 62.3 101.6 62.6C101.4 62.8 101.3 62.9 101.1 62.9Z" fill="black"/>
        <path d="M93.7 55C93.5 55 93.3 54.9 93.3 54.7C93.2 54.5 93.3 54.2 93.5 54L100.9 50.1C101.1 50 101.4 50.1 101.6 50.3C101.7 50.5 101.6 50.8 101.4 51L94 54.9C93.8 55 93.8 55 93.7 55Z" fill="black"/>
        <path d="M66.1999 45.5C66.1999 48.4 63.7998 50.8 60.8998 50.8C57.9998 50.8 55.5999 48.4 55.5999 45.5C55.5999 42.6 57.9998 40.2 60.8998 40.2C63.7998 40.2 66.1999 42.5 66.1999 45.5Z" fill="black"/>
        <path d="M60.8999 44.1C60.8999 45 60.1999 45.7 59.2999 45.7C58.3999 45.7 57.7 45 57.7 44.1C57.7 43.2 58.3999 42.5 59.2999 42.5C60.0999 42.5 60.8999 43.2 60.8999 44.1Z" fill="white"/>
        <path d="M51.7 34.1C57.4 34.9 67.8999 37 74.5999 39.7C76.8999 34.4 77.3999 28.3 75.4999 22.6C75.5999 25.8 75.1999 28.2 74.4999 30.1C65.8999 26 57.7999 23.8 54.8999 23.2C53.4999 25.5 51.9 30.4 51.7 34.1Z" fill="black"/>
        <path d="M112.5 45.5C112.5 48.4 110.1 50.8 107.2 50.8C104.3 50.8 101.9 48.4 101.9 45.5C101.9 42.6 104.3 40.2 107.2 40.2C110.1 40.1 112.5 42.5 112.5 45.5Z" fill="black"/>
        <path d="M107.1 44.1C107.1 45 106.4 45.7 105.5 45.7C104.6 45.7 103.9 45 103.9 44.1C103.9 43.2 104.6 42.5 105.5 42.5C106.4 42.5 107.1 43.2 107.1 44.1Z" fill="white"/>
        <path d="M116.3 34.1C110.6 34.9 100.1 37 93.3999 39.7C91.0999 34.4 90.6 28.3 92.5 22.6C92.4 25.8 92.8 28.2 93.5 30.1C102.1 26 110.3 23.8 113.1 23.2C114.5 25.5 116.1 30.4 116.3 34.1Z" fill="black"/>
    </g>
    <path d="M38.6999 78.9L38.5999 79.1C34.1999 77.4 30.2999 75.2 27.3999 73C32.7999 70.2 41.1999 69.1 43.4999 69.2L44.2999 69.5C43.1999 72.4 41.3999 75.6 38.6999 78.9Z" fill="#FFEABF"/>
    <path d="M44.2999 69.4L43.4999 69.1C35.2999 68 30.5 65.7 25.7 62.5C30.2 60.3 37.2999 58.4 44.3999 59.4L45.2 59.2C45.7 62.3 45.5999 65.7 44.2999 69.4Z" fill="#FFEABF"/>
    <path d="M40.9 50.4C42.9 52.7 44.5 55.7 45.2 59.3L44.4 59.5C36.6 57.6 31.1 55.2 26.5 53.5C30.6 51 35.3 49.6 40.9 50.4Z" fill="#FFEABF"/>
    <path d="M64.2998 71.5C63.8998 77.1 58.2998 83.2 47.4998 81.4C44.3998 80.9 41.3999 80 38.5999 79L38.6999 78.8C41.4999 75.5 43.2998 72.3 44.2998 69.3C45.5998 65.6 45.7999 62.2 45.1999 59.1C44.5999 55.5 42.8998 52.5 40.8998 50.2C43.6998 50.6 46.7999 51.5 50.1999 53.1C58.2999 56.9 64.7998 65.1 64.2998 71.5Z" fill="#CC6B33"/>
    <path d="M58.5999 57.1C56.2999 54.9 53.5999 53.1 50.8999 51.9C41.3999 47.5 33.5999 47.6 25.5999 52.2C25.0999 52.5 24.7999 53.1 24.8999 53.6C24.9999 54.2 25.3999 54.7 25.8999 54.9C27.0999 55.3 28.3999 55.8 29.7999 56.3C31.3999 56.9 32.9999 57.5 34.7999 58.1C30.9999 58.7 27.4999 59.9 24.9999 61.2C24.4999 61.4 24.2 61.9 24.2 62.5C24.2 63 24.3999 63.6 24.8999 63.8C27.8999 65.8 30.9999 67.5 34.8999 68.7C32.0999 69.3 29.1 70.2 26.7 71.5C26.3 71.7 25.9999 72.2 25.8999 72.7C25.8999 73.2 25.9999 73.6 26.3999 73.9L26.4999 74C31.8999 78.3 39.6999 81.6 47.2999 82.8C54.3999 84 58.7999 81.9 61.2 80C63.9 77.9 65.5999 74.8 65.8999 71.5C66.1999 67.1 63.4999 61.7 58.5999 57.1ZM30.8999 53.5C30.6999 53.4 30.4 53.3 30.2 53.2C33 52 36.4999 51.2 40.8999 51.8C42.1999 53.5 43.1999 55.5 43.8999 57.7C38.5999 56.5 34.4999 54.9 30.8999 53.5ZM28.8999 62.8C32.9999 61.3 38.6 60.2 44.2 60.9C44.3 60.9 44.3999 60.9 44.4999 60.9C44.6999 63 44.4999 65.3 43.8999 67.7H43.7999C36.9999 66.7 32.7999 65.1 28.8999 62.8ZM42.7 70.6C41.8 72.8 40.3999 75.1 38.4999 77.4C35.4999 76.2 32.6999 74.8 30.2999 73.2C34.8999 71.5 40.4 70.7 42.7 70.6ZM59.2999 77.8C57.2999 79.3 53.7 81 47.7 80C45.3 79.6 42.8999 79 40.4999 78.2C48.1999 68.1 47.3999 58.7 43.5999 52.5C45.3999 53 47.3999 53.7 49.5999 54.7C51.9999 55.8 54.3999 57.5 56.4999 59.4C60.6999 63.3 63.0999 67.9 62.7999 71.5C62.5999 73.9 61.3999 76.2 59.2999 77.8Z" fill="black"/>
    <path d="M129.3 78.9L129.4 79.1C133.8 77.4 137.7 75.2 140.6 73C135.2 70.2 126.8 69.1 124.5 69.2L123.7 69.5C124.8 72.4 126.6 75.6 129.3 78.9Z" fill="#FFEABF"/>
    <path d="M123.7 69.4L124.5 69.1C132.7 68 137.5 65.7 142.3 62.5C137.8 60.3 130.7 58.4 123.6 59.4L122.8 59.2C122.3 62.3 122.4 65.7 123.7 69.4Z" fill="#FFEABF"/>
    <path d="M127.1 50.4C125.1 52.7 123.5 55.7 122.8 59.3L123.6 59.5C131.4 57.6 136.9 55.2 141.5 53.5C137.4 51 132.7 49.6 127.1 50.4Z" fill="#FFEABF"/>
    <path d="M103.7 71.5C104.1 77.1 109.7 83.2 120.5 81.4C123.6 80.9 126.6 80 129.4 79L129.3 78.8C126.5 75.5 124.7 72.3 123.7 69.3C122.4 65.6 122.2 62.2 122.8 59.1C123.4 55.5 125.1 52.5 127.1 50.2C124.3 50.6 121.2 51.5 117.8 53.1C109.7 56.9 103.2 65.1 103.7 71.5Z" fill="#CC6B33"/>
    <path d="M102.2 71.6C102.5 74.9 104.2 78 106.9 80.1C109.3 82 113.7 84 120.8 82.9C128.4 81.6 136.2 78.3 141.6 74.1L141.7 74C142 73.7 142.2 73.2 142.2 72.8C142.2 72.3 141.9 71.8 141.4 71.6C139 70.3 136 69.4 133.2 68.8C137.1 67.5 140.2 65.9 143.2 63.9C143.7 63.6 143.9 63.1 143.9 62.6C143.9 62.1 143.5 61.6 143.1 61.3C140.6 60.1 137.1 58.9 133.3 58.2C135.1 57.6 136.7 57 138.3 56.4C139.7 55.9 141 55.4 142.2 55C142.8 54.8 143.1 54.3 143.2 53.7C143.3 53.1 143 52.6 142.5 52.3C134.6 47.7 126.8 47.6 117.2 52C114.5 53.3 111.8 55.1 109.5 57.2C104.5 61.7 101.8 67.1 102.2 71.6ZM124.1 57.8C124.7 55.6 125.8 53.6 127.1 51.9C131.5 51.3 135 52.1 137.8 53.3C137.6 53.4 137.3 53.5 137.1 53.6C133.5 54.9 129.4 56.5 124.1 57.8ZM124.3 67.7C123.5 65.3 123.4 63.1 123.6 61C123.7 61 123.8 61 123.9 61C129.5 60.3 135.1 61.4 139.2 62.9C135.2 65.1 131 66.7 124.3 67.7ZM137.6 73.2C135.2 74.8 132.4 76.3 129.4 77.4C127.5 75.1 126.2 72.8 125.2 70.6C127.6 70.7 133.1 71.5 137.6 73.2ZM105.2 71.4C104.9 67.8 107.3 63.2 111.5 59.3C113.6 57.4 116 55.7 118.4 54.6C120.6 53.6 122.5 52.9 124.4 52.4C120.6 58.6 119.8 68.1 127.5 78.1C125.2 78.9 122.7 79.5 120.3 79.9C114.3 80.9 110.7 79.3 108.7 77.7C106.6 76.2 105.4 73.9 105.2 71.4Z" fill="black"/>
    <path d="M162.8 68.0999C165.4 68.8999 167.4 71.5 167.2 75C166.8 80.7 163.1 82.4 159.3 81.8C159.3 82.8 159.1 83.9 158.6 85C156.8 88.8 150.6 90.3 144.6 87.7C143.1 95.7 132.6 96.1 128.5 93.5C126.4 98.2 119.6 99.5 116 96.5C114.4 101.1 106 102.1 103.1 97.4C100.4 101.4 95.6999 103.4 88.0999 102.6C83.8999 102.2 81.2999 100.8 79.7999 99.0999C73.2999 105.3 62.2999 101.3 60.5999 95.9C58.8999 98.3 54.8999 99.8 49.9999 98.9C47.2999 98.4 44.4998 96.6 43.2998 93.9C39.2998 98.7 29.5999 96.2 28.8999 90.4C24.1999 92.1 15.5999 91.6 12.8999 87.5C11.8999 86.1 11.3999 84.7 11.1999 83.3C5.19986 83.8 1.29986 81.0999 1.09986 76.5999C0.899865 72.9999 3.79985 69.9 6.89985 69.4C8.19985 69.2 9.49986 69.3 10.6999 70C10.8999 67.7 13.4999 63.8 18.4999 63.8C21.7999 63.8 25.4999 65.6 25.9999 70.3C30.2999 62.6 39.5999 66 40.8999 70.7C44.7999 69.2 50.4999 71.7 51.0999 75.8C53.2999 73.2 57.0999 72.5 59.8999 72.7C62.6999 72.9 65.2999 74.2999 66.8999 76.0999C70.0999 71.9999 78.5999 73.6 79.0999 78C80.9999 75.5 83.9998 73.8 87.2999 73.5C91.6999 73.1 95.6999 74.9 98.1999 77.3C99.2999 72.9 103.2 71.2 106.2 70.9C109.7 70.5 114.8 72 116.3 77.2C117 73.7 122.6 72 124.6 75.9C125.2 71.9 127.8 69.0999 132.4 68.0999C135.1 67.4999 137.5 67.7 139.3 68.9C140.3 66.3 143.1 63.7999 146.4 63.5999C150.6 63.2999 155.4 64.7 156.6 69.3C158.4 67.8 160.8 67.4999 162.8 68.0999Z" fill="#E8984D"/>
    <path d="M163.2 68.3C162.8 73.5 159.3 75.1 155.7 74.6C155.7 75.6 155.5 76.6 155 77.6C153.3 81.3 147.4 82.7 141.7 80.1C140.3 87.7 130.3 88.1 126.4 85.6C124.4 90.1 117.9 91.3 114.4 88.5C112.9 92.9 104.9 93.8 102.1 89.3C99.5 93.1 95 95 87.8 94.3C83.8 93.9 81.4 92.6 79.9 90.9C73.7 96.8 63.2 92.9 61.6 87.8C59.9 90.1 56.1 91.5 51.5 90.7C48.9 90.2 46.3 88.5 45.1 85.9C41.3 90.5 32 88.1 31.4 82.6C26.9 84.2 18.8 83.8 16.2 79.9C15.3 78.5 14.8 77.2 14.5 75.9C8.89997 76.3 5.29997 73.9 4.89997 69.9C2.59997 71.1 0.799969 73.6 0.899969 76.5C1.09997 81 4.99998 83.7 11 83.2C11.2 84.5 11.8 85.9 12.7 87.4C15.4 91.5 24 92 28.7 90.3C29.4 96.1 39.1 98.5 43.1 93.8C44.3 96.5 47.1 98.3 49.8 98.8C54.7 99.7 58.7 98.2 60.4 95.8C62.1 101.2 73.1 105.2 79.6 99C81.1 100.7 83.7 102.1 87.9 102.5C95.5 103.3 100.2 101.3 102.9 97.3C105.9 102 114.2 101.1 115.8 96.4C119.5 99.4 126.3 98 128.3 93.4C132.4 96 142.9 95.5 144.4 87.6C150.4 90.3 156.6 88.8 158.4 84.9C158.9 83.8 159.1 82.7 159.1 81.7C162.9 82.3 166.6 80.6 167 74.9C167.4 71.7 165.6 69.3 163.2 68.3Z" fill="#D98448"/>
    <path d="M23.5999 71.8C23.4999 71.7 23.2999 71.6 23.1999 71.5C22.7999 71.1 22.2999 70.9 21.7999 70.8C21.9999 70.3 22.0999 69.8 21.9999 69.3C21.7999 68 21.3999 67.2 20.3999 66.4C19.5999 65.8 18.4999 65.9 17.4999 66C16.6999 66.1 15.8999 66.7 15.2999 67.3C13.8999 68.6 13.0999 70.8 14.0999 72.5C14.8999 73.9 16.6999 74.4 18.1999 74.1C18.1999 74.5 18.1999 75 18.3999 75.4C18.6999 76 18.7999 76.2 19.1999 76.7C19.5999 77.2 20.3999 77.4 20.9999 77.4C21.1999 77.4 21.6999 77.5 21.0999 77.4C22.1999 77.7 23.3999 77.2 23.9999 76.2C24.3999 75.5 24.3999 74.8 24.3999 74C24.3999 73.4 24.2999 72.8 23.9999 72.4C23.8999 72.2 23.7999 72 23.5999 71.8Z" fill="#F2B46D"/>
    <path d="M42.1998 77.7C42.0998 77.6 42.0998 77.6 41.9998 77.6C41.6998 77.3 41.3998 77 40.9998 76.8C40.6998 75.8 39.9998 75 39.0998 74.4C38.4998 74 37.6998 73.8 36.8998 73.9C36.8998 73.7 36.8998 73.5 36.8998 73.3C36.7998 72.2 36.3998 71.4 35.6998 70.5C34.4998 69.2 32.1998 69.2 30.9998 70.5C30.0998 71.4 29.9998 72.6 30.4998 73.6C30.2998 74.5 30.5998 75.4 31.1998 76.1C31.6998 76.7 32.6998 76.9 33.3998 76.9C32.9998 77.8 32.8998 78.9 33.1998 79.8C33.6998 81.6 35.3998 82.3 36.9998 82.2C37.5998 82.3 38.1998 82.3 38.8998 82.3H38.9998C39.9998 82.7 41.1998 82.6 42.0998 81.7C43.1998 80.7 43.3998 78.7 42.1998 77.7Z" fill="#F2B46D"/>
    <path d="M56.9 76.6C55.9 76.8 54.9 77.3 54.1 77.9C53.9 77.7 53.5999 77.6 53.2999 77.5C54.4999 78 53.8 77.7 53.5 77.5C52.8 77.1 52.2 77 51.4 76.9C50.8 76.8 50 77.1 49.4 77.4C48.8 77.8 48 78.5 47.9 79.3C47.8 80.1 47.8 80.3 47.9 81.1C48 82.1 49.1 82.9 50 83.2C50.3 83.3 50.6 83.3 50.9 83.3H51C51.7 83.5 52.1999 83.4 52.7999 83.2C52.9999 83.6 53.3 84 53.6 84.3C54 85.2 54.6999 86 55.7999 86.3C57.7999 87 60.3 86.6 61.9 85.4C64.4 83.5 65.3 80.3 63.1 77.9C61.7 76.3 58.9 76.2 56.9 76.6Z" fill="#F2B46D"/>
    <path d="M44.7999 73.3C43.6999 73.3 42.7 74.3 42.7 75.4C42.7 76.6 43.6999 77.5 44.7999 77.5C45.8999 77.5 46.8999 76.5 46.8999 75.4C46.8999 74.2 45.9999 73.3 44.7999 73.3Z" fill="#F2B46D"/>
    <path d="M99.4998 83.8C98.4998 83.8 97.5999 84.7 97.5999 85.7C97.5999 86.7 98.4998 87.6 99.4998 87.6C100.5 87.6 101.4 86.7 101.4 85.7C101.4 84.7 100.5 83.8 99.4998 83.8Z" fill="#F2B46D"/>
    <path d="M26 77.8C25.9 77.8 25.9 77.9 26 77.8C25.1 78.1 24.5999 79.1 25.2999 79.9C25.9999 80.6 27.0999 80.1 27.2999 79.3C27.2999 79.3 27.2999 79.3 27.3999 79.2C27.9999 78.4 26.8 77.2 26 77.8Z" fill="#F2B46D"/>
    <path d="M75.3999 80.7C74.5999 80.4 74 80.2 73.2 80.1C72.4 80.1 71.5999 80.4 70.8999 80.8C69.0999 81.8 68.0999 84.3 69.2999 86.1C69.6999 86.7 70.1 87.1 70.7 87.4C71.1 87.9 71.6999 88.2 72.2999 88.4C73.1999 88.6 73.9999 88.4 74.8999 88L74.9999 87.9C75.5999 87.4 75.7 87.3 75.2 87.7C75.5 87.5 75.7999 87.3 75.9999 87.1C76.8999 86.3 77.3999 85.4 77.4999 84.1C77.6999 82.8 76.5999 81.3 75.3999 80.7Z" fill="#F2B46D"/>
    <path d="M95.2998 80.4C93.9998 79.1 92.1998 78.5 90.4998 78.3C88.2998 78.1 86.3998 78.7 85.0998 80.6C84.8998 80.8 84.7998 81.1 84.6998 81.3C83.6998 80.9 82.4998 80.8 81.4998 81C81.2998 81 80.9998 81.1 80.7998 81.2C79.2998 81.7 78.2998 83.3 78.4998 84.9C78.6998 86.6 79.6998 88 81.4998 88.4C82.9998 88.7 84.3998 88.3 85.5998 87.4C86.3998 88.2 87.3998 88.9 88.5998 89.1C88.8998 89.2 89.1998 89.2 89.4998 89.2C90.1998 89.3 90.7998 89.3 91.4998 89.1C91.5998 89.1 91.6998 89.1 91.7998 89.1C95.8998 89.2 98.0998 83.3 95.2998 80.4Z" fill="#F2B46D"/>
    <path d="M111.5 77.5C111.5 77.3 111.5 77.2 111.4 77C111.1 76.2 110.3 75.4 109.4 75.5C108.4 75.6 107.5 76 106.9 76.9C106.6 77.4 106.5 78 106.6 78.5C104.9 78.6 103.5 79.9 103.5 81.6C103.5 81.7 103.4 81.9 103.4 82C103.2 83.3 103.7 84.8 105.2 85.1C106.1 85.3 106.9 85.4 107.8 85.2C109.5 84.9 110.5 83.3 110.6 81.7C110.6 81.3 110.5 80.8 110.3 80.5C111.1 80 111.6 79.2 111.5 78.3C111.5 78.3 111.5 78.3 111.5 78.2C111.5 77.9 111.4 77.3 111.5 77.5Z" fill="#F2B46D"/>
    <path d="M142.6 73C141.9 73 141.3 73.2 140.8 73.6C140.8 73.5 140.8 73.5 140.7 73.4C140.4 72.6 140.6 73.2 140.7 73.4C140.6 73 140.3 72.5 140.1 72.1C138.9 70.3 137 69.6 134.9 69.9C136.1 69.7 134.7 69.9 134.3 70C133.7 70.2 133.1 70.5 132.6 71C131.7 71.9 131.3 73.3 131.6 74.6C131.6 74.7 131.6 74.8 131.6 74.9C131.1 74.9 130.6 74.9 130.2 75.1C129.3 75.4 128.8 75.9 128.2 76.5C127.9 76.4 127.6 76.3 127.2 76.3C125.6 76.3 124.3 77.5 124 79C123.7 78.7 123.3 78.5 123 78.3C121.9 77.7 120.8 77.6 119.6 77.9C118.3 78.2 117.3 79.5 117.3 80.9C116.9 81.5 116.9 82.4 117 83.1C117.2 83.9 117.8 84.6 118.5 85C119.3 85.5 120.3 85.7 121.2 85.6C122.2 85.5 123.5 85.2 124.2 84.4C124.6 83.9 125 83.4 125.2 82.7C125.2 82.5 125.3 82.4 125.3 82.2C125.9 82.6 126.5 82.9 127.3 82.9C127.8 82.9 128.3 82.8 128.7 82.6C128.9 82.7 129.1 82.8 129.2 82.9C129.5 83.4 130.1 84 130.7 84.1C131.6 84.2 132.3 84.4 133.2 84.2C134.5 83.9 135.4 82.7 135.8 81.5C136 81.1 136 80.6 136 80.2C136.6 80.2 137.2 80.1 137.8 80C138.8 79.8 139.7 79.1 140.3 78.3C140.8 78.9 141.6 79.3 142.5 79.3C144.1 79.3 145.5 77.9 145.5 76.3C145.5 74.7 144.2 73 142.6 73Z" fill="#F2B46D"/>
    <path d="M152.9 68.0999C152.4 67.0999 151.5 66.6 150.5 66.2C149.7 65.9 148.5 65.7999 147.7 66.0999C146.3 66.5999 145.3 67.7 145.3 69.3C145.3 69.9 145.5 70.5 145.8 70.9C145.9 71.6 146.1 72.1 146.6 72.7C146.9 73.1 147.4 73.3999 147.8 73.5999C148.7 73.9999 149.8 74.4 150.8 74C152 73.5 152.8 72.7 153.3 71.5C153.6 70.3 153.5 69.0999 152.9 68.0999Z" fill="#F2B46D"/>
</svg>
